<svg width="26" height="24" viewBox="0 0 26 24" fill="none" xmlns="http://www.w3.org/2000/svg">
<path d="M24.1472 2H21.3865L17.3988 16.7239H4.88344L2 6.23312" stroke="#646262" stroke-width="3" stroke-linecap="round" stroke-linejoin="round"/>
<path d="M6.11131 22C6.68731 22 7.15426 21.533 7.15426 20.957C7.15426 20.381 6.68731 19.9141 6.11131 19.9141C5.53531 19.9141 5.06836 20.381 5.06836 20.957C5.06836 21.533 5.53531 22 6.11131 22Z" fill="#646262" stroke="#646262" stroke-width="3" stroke-linecap="round" stroke-linejoin="round"/>
<path d="M16.4179 22C16.9939 22 17.4609 21.533 17.4609 20.957C17.4609 20.381 16.9939 19.9141 16.4179 19.9141C15.8419 19.9141 15.375 20.381 15.375 20.957C15.375 21.533 15.8419 22 16.4179 22Z" fill="#646262" stroke="#646262" stroke-width="3" stroke-linecap="round" stroke-linejoin="round"/>
<path d="M20.0982 6.47879L17.2147 16.7242H4.88344L2 6.2334L20.0982 6.47879Z" fill="#646262" stroke="#646262" stroke-width="3" stroke-linecap="round" stroke-linejoin="round"/>
</svg>
