<svg width="25" height="25" viewBox="0 0 25 25" fill="none" xmlns="http://www.w3.org/2000/svg">
<path d="M18.5854 1.57252C14.7773 1.64586 12.9136 4.34093 12.5 6.79122C12.0864 4.34093 10.2228 1.64581 6.41455 1.57252C2.90342 1.50504 0 4.20592 0 9.13502C0 15.4626 7.15732 18.3855 12.0516 23.1121C12.222 23.2767 12.1819 23.2724 12.1819 23.2724C12.2623 23.3716 12.3779 23.4291 12.4995 23.4291V23.4296C12.4995 23.4296 12.4998 23.4296 12.5 23.4296C12.5 23.4296 12.5003 23.4296 12.5005 23.4296V23.4291C12.6221 23.4291 12.7376 23.3716 12.8181 23.2724C12.8181 23.2724 12.778 23.2766 12.9484 23.1121C17.8427 18.3855 25 15.4626 25 9.13502C25 4.20592 22.0966 1.50504 18.5854 1.57252Z" fill="#646262"/>
</svg>
