<svg width="134" height="20" viewBox="0 0 134 20" fill="none" xmlns="http://www.w3.org/2000/svg">
<path d="M0.831055 19V1.10449H8.43604C10.3485 1.10449 11.736 1.26725 12.5986 1.59277C13.4694 1.91016 14.1652 2.47982 14.686 3.30176C15.2069 4.1237 15.4673 5.06364 15.4673 6.12158C15.4673 7.46436 15.0726 8.5752 14.2832 9.4541C13.4938 10.3249 12.3138 10.8742 10.7432 11.1021C11.5244 11.5578 12.1673 12.0583 12.6719 12.6035C13.1846 13.1488 13.8722 14.1172 14.7349 15.5088L16.9199 19H12.5986L9.98633 15.106C9.05859 13.7144 8.42383 12.8395 8.08203 12.4814C7.74023 12.1152 7.37809 11.867 6.99561 11.7368C6.61312 11.5985 6.00684 11.5293 5.17676 11.5293H4.44434V19H0.831055ZM4.44434 8.67285H7.11768C8.85107 8.67285 9.93343 8.59961 10.3647 8.45312C10.7961 8.30664 11.1338 8.05436 11.3779 7.69629C11.6221 7.33822 11.7441 6.89062 11.7441 6.35352C11.7441 5.7513 11.5814 5.26709 11.2559 4.90088C10.9385 4.52653 10.4868 4.29053 9.90088 4.19287C9.60791 4.15218 8.729 4.13184 7.26416 4.13184H4.44434V8.67285ZM18.8853 19V1.10449H32.1543V4.13184H22.4985V8.09912H31.4829V11.1143H22.4985V15.9849H32.4961V19H18.8853ZM35.5356 1.10449H39.1489V10.7969C39.1489 12.335 39.1937 13.3319 39.2832 13.7876C39.4378 14.52 39.804 15.11 40.3818 15.5576C40.9678 15.9971 41.7653 16.2168 42.7744 16.2168C43.7998 16.2168 44.5729 16.0093 45.0938 15.5942C45.6146 15.1711 45.9279 14.6543 46.0337 14.0439C46.1395 13.4336 46.1924 12.4204 46.1924 11.0044V1.10449H49.8057V10.5039C49.8057 12.6523 49.708 14.1701 49.5127 15.0571C49.3174 15.9442 48.9552 16.6929 48.4263 17.3032C47.9054 17.9136 47.2056 18.4019 46.3267 18.7681C45.4478 19.1261 44.3003 19.3052 42.8843 19.3052C41.1753 19.3052 39.8773 19.1099 38.9902 18.7192C38.1113 18.3205 37.4155 17.8078 36.9028 17.1812C36.3901 16.5464 36.0524 15.8831 35.8896 15.1914C35.6536 14.166 35.5356 12.6523 35.5356 10.6504V1.10449ZM52.7109 13.1772L56.2266 12.8354C56.4382 14.0155 56.8654 14.8822 57.5083 15.4355C58.1593 15.9889 59.0342 16.2656 60.1328 16.2656C61.2965 16.2656 62.1714 16.0215 62.7573 15.5332C63.3514 15.0368 63.6484 14.459 63.6484 13.7998C63.6484 13.3766 63.5223 13.0186 63.27 12.7256C63.0259 12.4245 62.5946 12.1641 61.9761 11.9443C61.5529 11.7979 60.5885 11.5374 59.083 11.1631C57.1462 10.6829 55.7871 10.0929 55.0059 9.39307C53.9072 8.40837 53.3579 7.20801 53.3579 5.79199C53.3579 4.88053 53.6143 4.03011 54.127 3.24072C54.6478 2.4432 55.3924 1.83691 56.3608 1.42188C57.3374 1.00684 58.5133 0.799316 59.8887 0.799316C62.1348 0.799316 63.8234 1.29167 64.9546 2.27637C66.0939 3.26107 66.6921 4.57536 66.749 6.21924L63.1357 6.37793C62.9811 5.45833 62.6475 4.79915 62.1348 4.40039C61.6302 3.99349 60.8693 3.79004 59.8521 3.79004C58.8022 3.79004 57.9803 4.0057 57.3862 4.43701C57.0037 4.7137 56.8125 5.08398 56.8125 5.54785C56.8125 5.97103 56.9915 6.33317 57.3496 6.63428C57.8053 7.01676 58.9121 7.41553 60.6699 7.83057C62.4277 8.24561 63.7257 8.67692 64.564 9.12451C65.4103 9.56396 66.0695 10.1702 66.5415 10.9434C67.0216 11.7083 67.2617 12.6564 67.2617 13.7876C67.2617 14.813 66.9769 15.7733 66.4072 16.6685C65.8376 17.5636 65.0319 18.231 63.9902 18.6704C62.9486 19.1017 61.6506 19.3174 60.0962 19.3174C57.8338 19.3174 56.0964 18.7965 54.8838 17.7549C53.6712 16.7051 52.9469 15.1792 52.7109 13.1772ZM70.3013 19V1.10449H83.5703V4.13184H73.9146V8.09912H82.8989V11.1143H73.9146V15.9849H83.9121V19H70.3013ZM87.0005 19V1.10449H99.2686V4.13184H90.6138V8.36768H98.0845V11.395H90.6138V19H87.0005ZM102.235 1.10449H105.848V10.7969C105.848 12.335 105.893 13.3319 105.982 13.7876C106.137 14.52 106.503 15.11 107.081 15.5576C107.667 15.9971 108.465 16.2168 109.474 16.2168C110.499 16.2168 111.272 16.0093 111.793 15.5942C112.314 15.1711 112.627 14.6543 112.733 14.0439C112.839 13.4336 112.892 12.4204 112.892 11.0044V1.10449H116.505V10.5039C116.505 12.6523 116.407 14.1701 116.212 15.0571C116.017 15.9442 115.654 16.6929 115.125 17.3032C114.605 17.9136 113.905 18.4019 113.026 18.7681C112.147 19.1261 111 19.3052 109.583 19.3052C107.875 19.3052 106.576 19.1099 105.689 18.7192C104.811 18.3205 104.115 17.8078 103.602 17.1812C103.089 16.5464 102.752 15.8831 102.589 15.1914C102.353 14.166 102.235 12.6523 102.235 10.6504V1.10449ZM120.423 19V1.25098H124.037V15.9849H133.021V19H120.423Z" fill="black"/>
</svg>
