<svg width="36" height="38" viewBox="0 0 36 38" fill="none" xmlns="http://www.w3.org/2000/svg">
<path d="M26.4549 5.39648C26.4549 5.39648 16.753 16.0226 27.0072 27.0811C27.0072 27.0811 32.6449 22.1815 31.2607 13.1153C33.7795 20.913 30.8476 29.6088 22.2934 32.0738C10.6299 35.5546 -0.398919 25.1834 1.78185 13.3203C-3.23969 22.1196 2.91454 34.2526 13.2126 36.7303C33.1415 41.9703 44.5003 16.078 26.4549 5.39687V5.39648Z" fill="#8DC544"/>
<path d="M16.2585 8.51846L16.5181 12.1412L26.5977 5.31615L15.6474 0L15.9104 3.67077C3.68966 5.33039 -1.30919 21.3081 8.6312 28.9515C11.4181 31.1108 15.0016 32.0373 18.3308 31.5804C14.9639 31.6265 11.7066 30.28 9.43466 28.0242C2.34735 21.3746 6.61273 8.81038 16.2585 8.51846Z" fill="#3586FC"/>
</svg>
