<svg width="20" height="20" viewBox="0 0 20 20" fill="none" xmlns="http://www.w3.org/2000/svg">
<g clip-path="url(#clip0_67_188)">
<path d="M13.0074 11.4031C15.0464 8.59469 14.8019 4.63207 12.2717 2.10141C9.46947 -0.700469 4.90963 -0.700469 2.10779 2.10141C-0.694785 4.90395 -0.694785 9.46305 2.10779 12.2656C4.63807 14.7959 8.60068 15.0404 11.4087 13.0017L11.9643 13.5565L13.5626 11.9582L13.0074 11.4031ZM10.8781 10.8724C8.84119 12.9089 5.53826 12.9093 3.50104 10.8724C1.46385 8.8352 1.46385 5.53191 3.50104 3.49504C5.5383 1.45816 8.84119 1.45816 10.8781 3.49504C12.9153 5.53191 12.9153 8.8352 10.8781 10.8724Z" fill="#646262"/>
<path d="M4.26946 4.65678C3.21173 6.01568 3.124 7.88514 4.00556 9.3292C4.08923 9.46549 4.26763 9.509 4.40431 9.42529C4.54064 9.34162 4.58376 9.16322 4.50048 9.02693V9.02725C3.74318 7.78897 3.81884 6.17717 4.72634 5.01275C4.82501 4.88666 4.80235 4.70424 4.67587 4.60631C4.54982 4.50768 4.36743 4.53033 4.26946 4.65678Z" fill="#646262"/>
<path d="M19.5894 17.1323L14.1926 12.3115L12.3184 14.1857L17.1388 19.5829C17.6289 20.2171 18.5116 20.1239 19.3047 19.3307C20.0974 18.538 20.2239 17.6225 19.5894 17.1323Z" fill="#646262"/>
</g>
<defs>
<clipPath id="clip0_67_188">
<rect width="20" height="20" fill="white"/>
</clipPath>
</defs>
</svg>
