<svg width="50" height="50" viewBox="0 0 50 50" fill="none" xmlns="http://www.w3.org/2000/svg">
<path d="M33.7245 11.7041C33.7245 11.7041 24.0225 22.3303 34.2768 33.3887C34.2768 33.3887 39.9145 28.4891 38.5302 19.4229C41.0491 27.2206 38.1171 35.9164 29.5629 38.3814C17.8995 41.8622 6.87061 31.491 9.05138 19.6279C4.02984 28.4272 10.1841 40.5603 20.4822 43.038C40.411 48.278 51.7698 22.3856 33.7245 11.7045V11.7041Z" fill="#8DC544"/>
<path d="M23.528 14.8261L23.7877 18.4488L33.8673 11.6238L22.9169 6.30762L23.18 9.97839C10.9592 11.638 5.96034 27.6157 15.9007 35.2592C18.6877 37.4184 22.2711 38.3449 25.6003 37.888C22.2334 37.9342 18.9761 36.5876 16.7042 34.3318C9.61688 27.6822 13.8823 15.118 23.528 14.8261Z" fill="#3586FC"/>
</svg>
